<svg aria-hidden="true" style="position: absolute; width: 0; height: 0; overflow: hidden;" version="1.1" xmlns="http://www.w3.org/2000/svg" xmlns:xlink="http://www.w3.org/1999/xlink">
<defs>
<symbol id="icon-envelope" viewBox="0 0 32 32">
<path fill="#757575" style="fill: var(--color1, #757575)" d="M29 4h-26c-1.654 0-3 1.256-3 2.8v16.804c0 1.544 1.346 2.8 3 2.8h26c1.654 0 3-1.256 3-2.8v-16.804c0-1.544-1.346-2.8-3-2.8zM29 5.866c0.136 0 0.266 0.028 0.384 0.074l-13.384 10.828-13.384-10.828c0.114-0.046 0.246-0.073 0.384-0.074h26zM29 24.536h-26c-0.552 0-1-0.418-1-0.932v-15.692l13.344 10.796c0.176 0.142 0.403 0.228 0.65 0.228 0.002 0 0.004 0 0.006-0h-0c0.002 0 0.004 0 0.006 0 0.247 0 0.474-0.086 0.652-0.23l-0.002 0.002 13.344-10.796v15.692c0 0.514-0.448 0.932-1 0.932z"></path>
</symbol>
<symbol id="icon-smartphone" viewBox="0 0 32 32">
<path fill="#757575" style="fill: var(--color1, #757575)" d="M23.467 0h-14.933c-1.764 0-3.2 1.34-3.2 2.987v25.89c0 1.647 1.436 2.987 3.2 2.987h14.933c1.764 0 3.2-1.34 3.2-2.987v-25.89c0-1.647-1.436-2.987-3.2-2.987zM8.533 1.99h14.933c0.589 0 1.067 0.448 1.067 0.996v20.911h-17.067v-20.911c0-0.548 0.478-0.996 1.067-0.996zM23.467 29.873h-14.933c-0.589 0-1.067-0.448-1.067-0.996v-2.987h17.067v2.987c0 0.548-0.478 0.994-1.067 0.994z"></path>
<path fill="#757575" style="fill: var(--color1, #757575)" d="M10.355 27.177c0.192 0.174 0.312 0.425 0.312 0.704s-0.12 0.53-0.312 0.703l-0.001 0.001c-0.198 0.182-0.464 0.293-0.755 0.293s-0.557-0.111-0.756-0.294l0.001 0.001c-0.192-0.174-0.312-0.425-0.312-0.704s0.12-0.53 0.312-0.703l0.001-0.001c0.198-0.182 0.464-0.293 0.755-0.293s0.557 0.111 0.756 0.294l-0.001-0.001z"></path>
</symbol>
</defs>
</svg>
